<svg xmlns="http://www.w3.org/2000/svg" width="960" height="420" viewBox="0 0 960 420" font-family="ui-monospace, SFMono-Regular, Menlo, monospace">
<rect width="960" height="420" fill="#020617"/>
<defs><pattern id="g" width="40" height="40" patternUnits="userSpaceOnUse"><path d="M 40 0 L 0 0 0 40" fill="none" stroke="#1e293b" stroke-width="0.5"/></pattern><marker id="arrow" viewBox="0 0 10 10" refX="9" refY="5" markerWidth="6" markerHeight="6" orient="auto-start-reverse"><path d="M 0 0 L 10 5 L 0 10 z" fill="#94a3b8"/></marker></defs>
<rect width="960" height="420" fill="url(#g)"/>
<text x="48" y="52" font-size="22" font-weight="700" fill="#e2e8f0">Pipeline stages</text>
<rect x="48" y="88" width="120" height="120" rx="6" fill="#0f172a" stroke="#1e293b"/>
<text x="60" y="116" font-size="12" fill="#22d3ee">01</text>
<text x="60" y="140" font-size="13" font-weight="700" fill="#e2e8f0">Seed</text>
<text x="60" y="162" font-size="11" fill="#94a3b8">SME CSV</text>
<line x1="170" y1="148" x2="178" y2="148" stroke="#94a3b8" stroke-width="1.5" marker-end="url(#arrow)"/>
<rect x="180" y="88" width="120" height="120" rx="6" fill="#0f172a" stroke="#1e293b"/>
<text x="192" y="116" font-size="12" fill="#94a3b8">02</text>
<text x="192" y="140" font-size="13" font-weight="700" fill="#e2e8f0">Identity</text>
<text x="192" y="162" font-size="11" fill="#94a3b8">canonical</text>
<line x1="302" y1="148" x2="310" y2="148" stroke="#94a3b8" stroke-width="1.5" marker-end="url(#arrow)"/>
<rect x="312" y="88" width="120" height="120" rx="6" fill="#0f172a" stroke="#1e293b"/>
<text x="324" y="116" font-size="12" fill="#fbbf24">03</text>
<text x="324" y="140" font-size="13" font-weight="700" fill="#e2e8f0">Eligibility</text>
<text x="324" y="162" font-size="11" fill="#94a3b8">excludes</text>
<line x1="434" y1="148" x2="442" y2="148" stroke="#94a3b8" stroke-width="1.5" marker-end="url(#arrow)"/>
<rect x="444" y="88" width="120" height="120" rx="6" fill="#0f172a" stroke="#1e293b"/>
<text x="456" y="116" font-size="12" fill="#22d3ee">04</text>
<text x="456" y="140" font-size="13" font-weight="700" fill="#e2e8f0">Research</text>
<text x="456" y="162" font-size="11" fill="#94a3b8">sources</text>
<line x1="566" y1="148" x2="574" y2="148" stroke="#94a3b8" stroke-width="1.5" marker-end="url(#arrow)"/>
<rect x="576" y="88" width="120" height="120" rx="6" fill="#0f172a" stroke="#1e293b"/>
<text x="588" y="116" font-size="12" fill="#34d399">05</text>
<text x="588" y="140" font-size="13" font-weight="700" fill="#e2e8f0">Evidence</text>
<text x="588" y="162" font-size="11" fill="#94a3b8">claims</text>
<line x1="698" y1="148" x2="706" y2="148" stroke="#94a3b8" stroke-width="1.5" marker-end="url(#arrow)"/>
<rect x="708" y="88" width="120" height="120" rx="6" fill="#0f172a" stroke="#1e293b"/>
<text x="720" y="116" font-size="12" fill="#a78bfa">06</text>
<text x="720" y="140" font-size="13" font-weight="700" fill="#e2e8f0">Opportunity</text>
<text x="720" y="162" font-size="11" fill="#94a3b8">hypothesis</text>
<line x1="830" y1="148" x2="838" y2="148" stroke="#94a3b8" stroke-width="1.5" marker-end="url(#arrow)"/>
<rect x="840" y="88" width="120" height="120" rx="6" fill="#0f172a" stroke="#1e293b"/>
<text x="852" y="116" font-size="12" fill="#fbbf24">07</text>
<text x="852" y="140" font-size="13" font-weight="700" fill="#e2e8f0">Review</text>
<text x="852" y="162" font-size="11" fill="#94a3b8">gate</text>
<rect x="48" y="240" width="864" height="132" rx="8" fill="#0f172a" stroke="#fb7185" stroke-opacity="0.5"/>
<text x="72" y="272" font-size="14" font-weight="700" fill="#fb7185">Guardrails (not draft-outsourcing)</text>
<text x="72" y="300" font-size="12" fill="#94a3b8">source-backed evidence only · no guessed emails · no LinkedIn scraping · draft-only, human approval</text>
<text x="72" y="322" font-size="12" fill="#94a3b8">budgeted provider calls · safe-HTTP fetcher · retry with backoff · per-company failure isolation</text>
<text x="72" y="344" font-size="12" fill="#94a3b8">exclusion list blocks large companies · no email send path (Gmail drafts only)</text>
</svg>